G04 DipTrace 3.0.0.0*
G04 TopPaste.gbr*
%MOIN*%
G04 #@! TF.FileFunction,Paste,Top*
G04 #@! TF.Part,Single*
%ADD64R,0.086456X0.058897*%
%ADD68O,0.003779X0.049055*%
%ADD70O,0.049055X0.003779*%
%ADD72R,0.003779X0.05496*%
%ADD74R,0.05496X0.003779*%
%ADD76R,0.035275X0.01559*%
%ADD78R,0.066771X0.045118*%
%ADD80R,0.039212X0.031338*%
%ADD82R,0.052992X0.045118*%
%ADD84R,0.038031X0.062834*%
%ADD86R,0.025433X0.035275*%
%ADD88R,0.021496X0.035275*%
%ADD92R,0.027401X0.031338*%
%ADD94R,0.017559X0.033307*%
%ADD96R,0.023464X0.027401*%
%ADD110R,0.043149X0.051023*%
%ADD112R,0.031338X0.035275*%
%ADD114R,0.051023X0.043149*%
%ADD116R,0.035275X0.031338*%
%FSLAX26Y26*%
G04*
G70*
G90*
G75*
G01*
G04 TopPaste*
%LPD*%
D116*
X839016Y1609016D3*
X772087D3*
D114*
X929016Y1349016D3*
Y1423819D3*
D112*
X994016Y1354016D3*
Y1420945D3*
D116*
X1729016Y1609016D3*
X1662087D3*
D112*
X654016Y1079016D3*
Y1145945D3*
Y1279016D3*
Y1212087D3*
X594016Y1009016D3*
Y942087D3*
X694016Y1009016D3*
Y942087D3*
X749016Y1009016D3*
Y942087D3*
X1249016Y934016D3*
Y867087D3*
D114*
X1514016Y704016D3*
Y629213D3*
D112*
X1944016Y1289016D3*
Y1355945D3*
X2399016Y1174016D3*
Y1240945D3*
D116*
X1879016Y1154016D3*
X1812087D3*
X2474016Y1029016D3*
X2540945D3*
D110*
X2419016Y949016D3*
X2493819D3*
D116*
X2474016Y1089016D3*
X2540945D3*
D114*
X2014016Y534016D3*
Y459213D3*
D112*
X1244016Y704016D3*
Y637087D3*
X1729016Y624016D3*
Y557087D3*
D114*
X2014016Y729016D3*
Y654213D3*
D116*
X2229016Y759016D3*
X2295945D3*
D112*
X2274016Y909016D3*
Y842087D3*
D116*
X1264016Y1259016D3*
X1330945D3*
X2364016Y824016D3*
X2430945D3*
D96*
X794016Y954016D3*
Y1009134D3*
D110*
X1459016Y1329016D3*
X1533819D3*
D114*
X2104016Y1449016D3*
Y1523819D3*
X2214016Y1449016D3*
Y1523819D3*
X2324016Y1449016D3*
Y1523819D3*
D110*
X1844016Y1059016D3*
X1769213D3*
D94*
X1514016Y1449016D3*
X1588819D3*
X1551418Y1539567D3*
D112*
X799016Y1494016D3*
Y1427087D3*
X1454016Y1519016D3*
Y1452087D3*
D116*
X1484016Y1604016D3*
X1550945D3*
X1484016Y1744016D3*
X1550945D3*
X1484016Y1669016D3*
X1550945D3*
X1464016Y1259016D3*
X1530945D3*
D112*
X2104016Y1664016D3*
Y1597087D3*
X2214016Y1664016D3*
Y1597087D3*
X2324016Y1664016D3*
Y1597087D3*
D116*
X1589016Y1049016D3*
X1522087D3*
X1644016D3*
X1710945D3*
D112*
X2414016Y1084016D3*
Y1017087D3*
D92*
X584016Y1494016D3*
Y1431024D3*
X745433D3*
Y1494016D3*
X779016Y784016D3*
Y847008D3*
X617599D3*
Y784016D3*
D88*
X1039016Y2149016D3*
D86*
X995709D3*
X952402D3*
X909095D3*
X865788D3*
X822481D3*
X779173D3*
X735866D3*
D84*
X1086851Y2135040D3*
D82*
X639016Y2144292D3*
D80*
X632126Y1759646D3*
Y1904922D3*
D78*
X1004961Y1722638D3*
X769922D3*
D76*
X1609016Y1739016D3*
Y1701614D3*
Y1664213D3*
X1715315D3*
Y1701614D3*
Y1739016D3*
D74*
X929016Y1214016D3*
Y1194331D3*
Y1174646D3*
Y1154961D3*
Y1135276D3*
Y1115591D3*
Y1095906D3*
Y1076221D3*
Y1056536D3*
Y1036851D3*
Y1017166D3*
Y997481D3*
D72*
X986103Y940394D3*
X1005788D3*
X1025473D3*
X1045158D3*
X1064843D3*
X1084528D3*
X1104213D3*
X1123898D3*
X1143583D3*
X1163268D3*
X1182953D3*
X1202638D3*
D74*
X1259725Y997481D3*
Y1017166D3*
Y1036851D3*
Y1056536D3*
Y1076221D3*
Y1095906D3*
Y1115591D3*
Y1135276D3*
Y1154961D3*
Y1174646D3*
Y1194331D3*
Y1214016D3*
D72*
X1202638Y1271103D3*
X1182953D3*
X1163268D3*
X1143583D3*
X1123898D3*
X1104213D3*
X1084528D3*
X1064843D3*
X1045158D3*
X1025473D3*
X1005788D3*
X986103D3*
D70*
X1984643Y1214924D3*
Y1195239D3*
Y1175554D3*
Y1155869D3*
Y1136184D3*
Y1116499D3*
Y1096814D3*
Y1077129D3*
Y1057444D3*
X1984646Y1037759D3*
Y1018074D3*
Y998389D3*
D68*
X2024013Y959019D3*
X2043698D3*
X2063383D3*
X2083068D3*
X2102754D3*
X2122439D3*
X2142124D3*
X2161809D3*
X2181494D3*
X2201179D3*
X2220864D3*
X2240549D3*
D70*
X2279919Y998389D3*
Y1018074D3*
Y1037759D3*
Y1057444D3*
Y1077129D3*
Y1096814D3*
Y1116499D3*
Y1136184D3*
Y1155869D3*
Y1175554D3*
Y1195239D3*
X2279924Y1214924D3*
D68*
X2240549Y1254294D3*
X2220864D3*
X2201179D3*
X2181494D3*
X2161809D3*
X2142124D3*
X2122439D3*
X2102754D3*
X2083068D3*
X2063383D3*
X2043698D3*
X2024013D3*
D76*
X1319016Y714016D3*
Y676614D3*
Y639213D3*
X1425315D3*
Y714016D3*
X1809016Y539016D3*
Y501614D3*
Y464213D3*
X1915315D3*
Y539016D3*
X1809016Y734016D3*
Y696614D3*
Y659213D3*
X1915315D3*
Y734016D3*
D64*
X754016Y1114016D3*
Y1259685D3*
D112*
X1799016Y1679016D3*
Y1612087D3*
G36*
X2044016Y1194016D2*
X2119016D1*
Y1119016D1*
X2044016D1*
Y1194016D1*
G37*
G36*
X2144016D2*
X2219016D1*
Y1119016D1*
X2144016D1*
Y1194016D1*
G37*
G36*
X2044016Y1094016D2*
X2119016D1*
Y1019016D1*
X2044016D1*
Y1094016D1*
G37*
G36*
X2144016D2*
X2219016D1*
Y1019016D1*
X2144016D1*
Y1094016D1*
G37*
M02*
